<?xml version="1.0" standalone="no"?><!DOCTYPE svg PUBLIC "-//W3C//DTD SVG 1.1//EN" "http://www.w3.org/Graphics/SVG/1.1/DTD/svg11.dtd"><svg t="1734360005908" class="icon" viewBox="0 0 1024 1024" version="1.1" xmlns="http://www.w3.org/2000/svg" p-id="5117" width="256" height="256" xmlns:xlink="http://www.w3.org/1999/xlink"><path d="M12.8 512c0 275.2 224 499.2 499.2 499.2s499.2-224 499.2-499.2S787.2 12.8 512 12.8 12.8 236.8 12.8 512z" fill="#7ECEF4" p-id="5118"></path><path d="M979.2 640c-70.4 256-332.8 409.6-588.8 339.2-70.4-19.2-134.4-51.2-192-96 224 108.8 531.2 44.8 659.2-179.2 115.2-198.4 38.4-460.8-115.2-608 198.4 102.4 294.4 326.4 236.8 544z" fill="#64B1D6" p-id="5119"></path><path d="M940.8 480c6.4 19.2 0 64 0 64s12.8 57.6 32 57.6c38.4 0 19.2-64 25.6-121.6 6.4-70.4-76.8-217.6-83.2-236.8-6.4-6.4 32 96 19.2 115.2-12.8 6.4-6.4 89.6 6.4 121.6z" fill="#94F47E" p-id="5120"></path><path d="M121.6 281.6C-6.4 512 64 800 294.4 940.8 57.6 819.2-38.4 524.8 83.2 288 192 83.2 428.8-19.2 652.8 51.2c-211.2-51.2-422.4 44.8-531.2 230.4z" fill="#A2E8FA" p-id="5121"></path><path d="M729.6 140.8c-12.8 51.2-76.8 32-89.6 96 0 19.2-12.8 51.2-44.8 83.2-32 32 0 115.2-19.2 121.6-19.2 0-38.4-51.2-44.8-51.2-19.2 0-19.2 19.2-38.4 25.6-12.8 6.4-64-25.6-70.4 25.6-6.4 44.8 12.8 89.6 32 83.2 6.4-6.4 32-51.2 32-19.2v57.6s51.2-19.2 51.2 0c6.4 12.8 44.8 57.6 44.8 64 0 6.4-25.6-25.6-96-25.6-57.6-38.4-76.8-25.6-128-51.2-6.4-6.4 6.4-12.8 0-19.2-38.4-25.6-76.8-57.6-96-96 0 0 32 83.2 38.4 96s-6.4 0-19.2-32c-6.4 0-19.2-6.4-19.2-12.8-6.4-6.4-6.4-25.6-12.8-38.4-12.8-38.4-44.8-44.8-64-96-12.8-32 6.4-96 0-108.8-19.2-32-57.6-6.4-64-19.2C198.4 140.8 275.2 76.8 409.6 44.8c89.6-25.6 243.2-6.4 364.8 64 12.8 6.4-38.4 12.8-44.8 32z m-236.8 44.8c-12.8 0-70.4 0-51.2 12.8 12.8 6.4 19.2 0 38.4 6.4 12.8 6.4 0 25.6 19.2 19.2 6.4-6.4 6.4-38.4-6.4-38.4z m32 44.8c-19.2-6.4-32 0-38.4 12.8 12.8-19.2-19.2 32 0 38.4 6.4 6.4 12.8-44.8 25.6-44.8s12.8 32 25.6 38.4c6.4 6.4 0-19.2 6.4-19.2s12.8 6.4 19.2 0c0-6.4-19.2-25.6-38.4-25.6z m51.2 38.4l-19.2 12.8s-32 0-38.4 6.4c0 6.4 12.8 0 25.6 6.4 6.4 0 12.8-6.4 12.8-6.4l19.2-12.8 25.6-6.4H576z" fill="#94F47E" p-id="5122"></path><path d="M838.4 742.4s6.4 38.4-12.8 51.2c-6.4 6.4-38.4 19.2-44.8 32-38.4 32-12.8 51.2-70.4 83.2 0 0-57.6 44.8-83.2 57.6-25.6 12.8-102.4 12.8-96 6.4C544 960 640 832 627.2 832c-64-6.4-70.4-51.2-108.8-89.6-19.2-19.2 6.4-57.6 19.2-76.8 12.8-25.6 44.8-76.8 64-76.8h12.8V640s25.6-6.4 25.6-12.8-12.8-19.2-19.2-19.2c32 6.4 96 38.4 108.8 57.6 25.6 51.2-6.4-12.8 32-6.4 32 6.4 83.2 38.4 115.2 38.4 25.6-6.4-38.4 44.8-38.4 44.8z" fill="#94F47E" p-id="5123"></path></svg>